<svg viewBox="0 0 330 200" xmlns="http://www.w3.org/2000/svg"><g><g><g><g><g><line x1="50" y1="175" x2="45" y2="175" style="visibility: inherit;" fill="rgb(0, 0, 0)" stroke="rgb(204, 204, 204)" stroke-width="1px"></line><line x1="50" y1="157.5" x2="45" y2="157.5" style="visibility: inherit;" fill="rgb(0, 0, 0)" stroke="rgb(204, 204, 204)" stroke-width="1px"></line><line x1="50" y1="140" x2="45" y2="140" style="visibility: inherit;" fill="rgb(0, 0, 0)" stroke="rgb(204, 204, 204)" stroke-width="1px"></line><line x1="50" y1="122.5" x2="45" y2="122.5" style="visibility: inherit;" fill="rgb(0, 0, 0)" stroke="rgb(204, 204, 204)" stroke-width="1px"></line><line x1="50" y1="105" x2="45" y2="105" style="visibility: inherit;" fill="rgb(0, 0, 0)" stroke="rgb(204, 204, 204)" stroke-width="1px"></line><line x1="50" y1="87.5" x2="45" y2="87.5" style="visibility: inherit;" fill="rgb(0, 0, 0)" stroke="rgb(204, 204, 204)" stroke-width="1px"></line><line x1="50" y1="70" x2="45" y2="70" style="visibility: inherit;" fill="rgb(0, 0, 0)" stroke="rgb(204, 204, 204)" stroke-width="1px"></line><line x1="50" y1="52.500000000000014" x2="45" y2="52.500000000000014" style="visibility: inherit;" fill="rgb(0, 0, 0)" stroke="rgb(204, 204, 204)" stroke-width="1px"></line><line x1="50" y1="35" x2="45" y2="35" style="visibility: inherit;" fill="rgb(0, 0, 0)" stroke="rgb(204, 204, 204)" stroke-width="1px"></line><line x1="50" y1="17.5" x2="45" y2="17.5" style="visibility: inherit;" fill="rgb(0, 0, 0)" stroke="rgb(204, 204, 204)" stroke-width="1px"></line><line x1="50" y1="0" x2="45" y2="0" style="visibility: inherit;" fill="rgb(0, 0, 0)" stroke="rgb(204, 204, 204)" stroke-width="1px"></line></g><g transform="translate(40, 0)"><text x="0" y="175" dx="0em" dy="0.3em" style="text-anchor: end; visibility: hidden; font-family: &quot;Helvetica Neue&quot;, sans-serif; font-size: 12px; font-weight: 200;" fill="rgb(50, 49, 63)" stroke="none" stroke-width="1px">-0.1</text><text x="0" y="157.5" dx="0em" dy="0.3em" style="text-anchor: end; visibility: inherit; font-family: &quot;Helvetica Neue&quot;, sans-serif; font-size: 12px; font-weight: 200;" fill="rgb(50, 49, 63)" stroke="none" stroke-width="1px">0</text><text x="0" y="140" dx="0em" dy="0.3em" style="text-anchor: end; visibility: hidden; font-family: &quot;Helvetica Neue&quot;, sans-serif; font-size: 12px; font-weight: 200;" fill="rgb(50, 49, 63)" stroke="none" stroke-width="1px">0.1</text><text x="0" y="122.5" dx="0em" dy="0.3em" style="text-anchor: end; visibility: inherit; font-family: &quot;Helvetica Neue&quot;, sans-serif; font-size: 12px; font-weight: 200;" fill="rgb(50, 49, 63)" stroke="none" stroke-width="1px">0.2</text><text x="0" y="105" dx="0em" dy="0.3em" style="text-anchor: end; visibility: hidden; font-family: &quot;Helvetica Neue&quot;, sans-serif; font-size: 12px; font-weight: 200;" fill="rgb(50, 49, 63)" stroke="none" stroke-width="1px">0.3</text><text x="0" y="87.5" dx="0em" dy="0.3em" style="text-anchor: end; visibility: inherit; font-family: &quot;Helvetica Neue&quot;, sans-serif; font-size: 12px; font-weight: 200;" fill="rgb(50, 49, 63)" stroke="none" stroke-width="1px">0.4</text><text x="0" y="70" dx="0em" dy="0.3em" style="text-anchor: end; visibility: hidden; font-family: &quot;Helvetica Neue&quot;, sans-serif; font-size: 12px; font-weight: 200;" fill="rgb(50, 49, 63)" stroke="none" stroke-width="1px">0.5</text><text x="0" y="52.500000000000014" dx="0em" dy="0.3em" style="text-anchor: end; visibility: inherit; font-family: &quot;Helvetica Neue&quot;, sans-serif; font-size: 12px; font-weight: 200;" fill="rgb(50, 49, 63)" stroke="none" stroke-width="1px">0.6</text><text x="0" y="35" dx="0em" dy="0.3em" style="text-anchor: end; visibility: hidden; font-family: &quot;Helvetica Neue&quot;, sans-serif; font-size: 12px; font-weight: 200;" fill="rgb(50, 49, 63)" stroke="none" stroke-width="1px">0.7</text><text x="0" y="17.5" dx="0em" dy="0.3em" style="text-anchor: end; visibility: inherit; font-family: &quot;Helvetica Neue&quot;, sans-serif; font-size: 12px; font-weight: 200;" fill="rgb(50, 49, 63)" stroke="none" stroke-width="1px">0.8</text><text x="0" y="0" dx="0em" dy="0.3em" style="text-anchor: end; visibility: hidden; font-family: &quot;Helvetica Neue&quot;, sans-serif; font-size: 12px; font-weight: 200;" fill="rgb(50, 49, 63)" stroke="none" stroke-width="1px">0.9</text></g><line x1="50" y1="0" x2="50" y2="175" fill="rgb(0, 0, 0)" stroke="rgb(204, 204, 204)" stroke-width="1px"></line></g></g><g transform="translate(50, 0)" clip-path="url(#clip_0)"><clipPath id="clip_0"><rect width="280" height="175"></rect></clipPath><g><g><g><line x1="0" y1="0" x2="0" y2="175" fill="rgb(0, 0, 0)" stroke="rgb(60, 60, 60)" stroke-width="1px" opacity="0.25"></line><line x1="28" y1="0" x2="28" y2="175" fill="rgb(0, 0, 0)" stroke="rgb(60, 60, 60)" stroke-width="1px" opacity="0.25"></line><line x1="56" y1="0" x2="56" y2="175" fill="rgb(0, 0, 0)" stroke="rgb(60, 60, 60)" stroke-width="1px" opacity="0.25"></line><line x1="84" y1="0" x2="84" y2="175" fill="rgb(0, 0, 0)" stroke="rgb(60, 60, 60)" stroke-width="1px" opacity="0.25"></line><line x1="112" y1="0" x2="112" y2="175" fill="rgb(0, 0, 0)" stroke="rgb(60, 60, 60)" stroke-width="1px" opacity="0.25"></line><line x1="140" y1="0" x2="140" y2="175" fill="rgb(0, 0, 0)" stroke="rgb(60, 60, 60)" stroke-width="1px" opacity="0.25"></line><line x1="168" y1="0" x2="168" y2="175" fill="rgb(0, 0, 0)" stroke="rgb(60, 60, 60)" stroke-width="1px" opacity="0.25"></line><line x1="196" y1="0" x2="196" y2="175" fill="rgb(0, 0, 0)" stroke="rgb(60, 60, 60)" stroke-width="1px" opacity="0.25"></line><line x1="224" y1="0" x2="224" y2="175" fill="rgb(0, 0, 0)" stroke="rgb(60, 60, 60)" stroke-width="1px" opacity="0.25"></line><line x1="252" y1="0" x2="252" y2="175" fill="rgb(0, 0, 0)" stroke="rgb(60, 60, 60)" stroke-width="1px" opacity="0.25"></line><line x1="280" y1="0" x2="280" y2="175" fill="rgb(0, 0, 0)" stroke="rgb(60, 60, 60)" stroke-width="1px" opacity="0.25"></line></g><g><line x1="0" y1="175" x2="280" y2="175" fill="rgb(0, 0, 0)" stroke="rgb(60, 60, 60)" stroke-width="1px" opacity="0.25"></line><line x1="0" y1="157.5" x2="280" y2="157.5" fill="rgb(0, 0, 0)" stroke="rgb(60, 60, 60)" stroke-width="1px" opacity="0.25"></line><line x1="0" y1="140" x2="280" y2="140" fill="rgb(0, 0, 0)" stroke="rgb(60, 60, 60)" stroke-width="1px" opacity="0.25"></line><line x1="0" y1="122.5" x2="280" y2="122.5" fill="rgb(0, 0, 0)" stroke="rgb(60, 60, 60)" stroke-width="1px" opacity="0.25"></line><line x1="0" y1="105" x2="280" y2="105" fill="rgb(0, 0, 0)" stroke="rgb(60, 60, 60)" stroke-width="1px" opacity="0.25"></line><line x1="0" y1="87.5" x2="280" y2="87.5" fill="rgb(0, 0, 0)" stroke="rgb(60, 60, 60)" stroke-width="1px" opacity="0.25"></line><line x1="0" y1="70" x2="280" y2="70" fill="rgb(0, 0, 0)" stroke="rgb(60, 60, 60)" stroke-width="1px" opacity="0.25"></line><line x1="0" y1="52.500000000000014" x2="280" y2="52.500000000000014" fill="rgb(0, 0, 0)" stroke="rgb(60, 60, 60)" stroke-width="1px" opacity="0.25"></line><line x1="0" y1="35" x2="280" y2="35" fill="rgb(0, 0, 0)" stroke="rgb(60, 60, 60)" stroke-width="1px" opacity="0.25"></line><line x1="0" y1="17.5" x2="280" y2="17.5" fill="rgb(0, 0, 0)" stroke="rgb(60, 60, 60)" stroke-width="1px" opacity="0.25"></line><line x1="0" y1="0" x2="280" y2="0" fill="rgb(0, 0, 0)" stroke="rgb(60, 60, 60)" stroke-width="1px" opacity="0.25"></line></g></g></g><g><g><line x1="0" y1="157.5" x2="280" y2="157.5" fill="rgb(0, 0, 0)" stroke="rgb(153, 153, 153)" stroke-width="1.5px"></line></g></g><g><g><line x1="28" y1="0" x2="28" y2="175" fill="rgb(0, 0, 0)" stroke="rgb(153, 153, 153)" stroke-width="1.5px"></line></g></g><g><g><g><g><g><path stroke="rgb(255, 112, 67)" stroke-width="2px" d="M30.016000000000002,-4.683821198141459L30.099999999999998,6.395625414322041L30.66,8.688165666435111L30.884,16.041571865497076L30.996000000000002,17.017271962410206L31.555999999999997,-11.77383957124951L31.92,1.3580571298100779L32.367999999999995,0.8558667778234224L32.452,22.87210329036924L32.704,29.951519425871055L33.012,26.028644088801627L33.152,30.468453873717152L33.208,29.62078423011809L33.348,24.976001345434298L34.44,17.5266565462436L34.58,21.329966898659933L35,25.19352432747968L35.168,21.319339084103348L35.308,29.604460855794883L35.504,33.62479686888531L35.672000000000004,16.644761028896994L36.204,30.079139379160836L36.651999999999994,29.478300078979885L36.708,33.59543610454139L36.931999999999995,30.37680198582774L37.268,30.757473657504363L37.52,28.42192857421378L37.744,26.444073829259366L38.192,36.49601114843699L38.304,43.94617293891693L39.815999999999995,33.003304544252984L39.844,34.92142674175773L40.32,34.51077816958795L40.404,38.17251836282733L40.488,46.57766518253021L40.908,47.609375579881174L40.992,43.116882123317765L41.019999999999996,31.873827264660605L41.3,28.14251177651869L41.775999999999996,34.93384822111588L41.832,39.000872873726195L42.42,39.01384169069701L42.896,42.54796787625938L43.036,39.25287821605673L43.792,48.2874082250447L44.072,50.984353108590724L44.24,43.880845954047686L44.296,34.5873180925972L44.436,30.240243190533562L44.464,36.64355713963991L44.884,37.21751760745346L45.388,45.78345222058516L45.444,42.90725876559381L45.78,47.04502802890286L45.976000000000006,49.919441710720974L46.004,44.70043967414526L46.06,45.25822085290329L46.144,42.527019155914644L46.2,46.00997327142659L46.535999999999994,44.83430050834241L46.815999999999995,48.66845752611296L47.152,55.99029914030156L47.292,50.11554977589084L48.02,45.510752208788574L48.132,36.130457525109875L48.244,42.05564093867281L48.272,47.991679980035656L48.468,52.74830321888689L48.72,51.433331611279044L48.832,56.38956525476182L48.944,45.44829653830172L49.084,50.54807548004891L49.196,55.381548191776915L49.448,42.4901405487484L49.559999999999995,47.56214782679237L49.616,43.268472821022016L49.672,45.5308590355545L49.868,47.507768393935535L50.008,51.15600724302635L50.06399999999999,51.91547858287636L50.20399999999999,53.096732899962305L50.26,41.71421242083218L50.372,46.12416799262229L50.483999999999995,46.49408373472133L50.652,31.15545924447204L50.68,34.485164856566314L51.324,34.01008449533779L51.436,37.608465448255515L52.36,45.23538034870339L52.556000000000004,47.02849246093102L52.724,52.54108510630411L53.116,51.78838838468242L53.227999999999994,54.23104554015546L53.424,43.283004579533014L53.480000000000004,51.39690924739175L53.647999999999996,47.20081310901246L53.704,42.19883204360724L54.096000000000004,35.94064295804452L54.124,30.428546431755734L54.404,29.669832326826878L54.488,34.83985360733118L54.74,48.489708759018455L54.852,46.75532094098844L54.964,45.13144726430011L55.215999999999994,46.41105064674994L55.244,42.546885066776156L55.412,44.92039481016914L55.440000000000005,48.885851378517884L55.580000000000005,41.03370372967575L56.084,43.62982538054379L56.168,32.623496691644135L56.42,30.103154087221583L57.26,35.37426883229969L57.624,37.72688492685174L57.792,51.210132327971536L57.876,53.32334392505746L57.932,52.52934952520047L58.044000000000004,48.55297708477207L58.212,58.090682530198265L58.352000000000004,51.58299833762274L58.632,46.85184186832683L58.8,53.67054942927703L58.94,57.91098465729918L59.22,51.698119462783126L59.36,62.0656870730251L60.396,60.943586285563114L60.507999999999996,63.544470343382244L60.536,67.61603747212357L60.564,73.05852487327734L61.068,67.83810254718115L61.403999999999996,72.75759593716413L61.432,84.34102950138539L61.6,73.03824780966455L61.796,73.12217318168649L62.524,78.04390992612461L62.86,75.95391890937579L63.168,76.28951133212145L63.251999999999995,82.470981126551L63.336000000000006,79.72574957938443L63.895999999999994,76.33518164593845L64.06400000000001,70.77419558309835L64.26,82.06230657782152L64.428,85.95484189680812L64.87599999999999,86.02329893405197L64.96000000000001,79.04324283298824L65.268,76.14841091690646L65.352,79.6652848008763L65.43599999999999,74.96339991590327L65.464,89.1825747186002L66.808,91.26312045419554L66.892,97.93328635790552L66.976,93.21772350608471L67.004,93.43627139174438L67.62,90.74362888481318L67.956,97.43166509000122L68.012,97.28498323397433L68.124,99.78252019665597L68.236,102.19804642308924L68.348,97.93751017873987L69.048,97.10594628230038L69.07600000000001,94.52808436140599L69.384,93.11350683203447L69.60799999999999,100.71810799736446L69.72,95.27173815905252L69.776,94.31100761138916L70.25200000000001,99.74533143784713L70.672,96.00872995344467L70.784,92.98850525550642L71.48400000000001,96.39057313878894L71.932,99.76608380961156L71.96000000000001,109.29667505793414L72.38,104.28440829022313L72.492,102.84600728692762L72.94,98.54904504979939L72.968,102.66034199217134L73.33200000000001,96.01510002266869L73.58399999999999,94.85820361406509L73.72399999999999,93.86787866610827L73.86399999999999,98.24465861951435L73.94800000000001,103.25687933585122L74.088,104.02280741108105L74.17200000000001,108.09174780948547L74.508,103.78348013701192L74.73200000000001,106.18921703661769L74.928,102.10834423640544L75.124,94.27051371299729L75.376,97.38299760796728L75.488,90.88537242161098L75.544,95.81402496187009L75.60000000000001,101.69976941161227L75.684,101.39046353943867L75.88000000000001,97.61905653981998L76.13199999999999,98.24866422241112L76.41199999999999,97.74325190916765L76.524,94.90215229353372L76.58000000000001,97.36750827646891L76.664,101.55906698952103L76.804,104.56016988664857L76.888,95.34209228223557L76.916,96.66093103090522L76.944,96.72840471267459L77.476,102.21545466899728L77.72800000000001,106.46402537298117L77.896,107.31694447679467L78.092,107.90375815441101L78.12,115.17275617486172L78.372,107.53200695494374L78.568,108.94960776316859L79.156,106.9303616604074L79.268,103.30805079465296L79.548,107.54826546505204L79.66,106.88540852543778L79.91199999999999,109.56012783334891L80.276,99.05944828919316L80.36,96.57955941397992L80.528,98.62094167971043L80.584,95.192276681086L81.536,104.93894013441836L81.70400000000001,107.53317339823981L82.17999999999999,111.88077356580698L82.236,111.54596481420877L82.46,107.74695190011433L82.544,109.9079599512754L82.6,112.94900661904443L83.104,106.96174959062832L83.49600000000001,104.21817356180726L83.55199999999999,100.32193055052505L84.05600000000001,97.8888846653637L84.16799999999999,106.07580871688943L84.392,103.27780879323257L84.868,100.74503610601766L85.036,99.57960498375142L85.708,109.66783974792031L86.04400000000001,95.2746444596378L86.072,103.06342939457464L86.15599999999999,108.81655964208345L86.18400000000001,109.01337017388761L86.24,108.81514417989027L86.29599999999999,113.0872052780567L86.408,117.74852066467871L86.52,114.32129811782045L86.716,109.85885770045758L87.136,115.52520403816129L88.088,116.34321251245632L88.2,117.31442954380687L88.256,115.48038528108225L88.396,116.55485934462325L88.648,123.00150818494663L88.98400000000001,117.91698847334209L89.264,117.39989605021847L89.32000000000001,111.36804977936968L89.37599999999999,107.67398619582309L89.404,107.1250803704861L89.51599999999999,108.54550572847147L89.60000000000001,107.02622594007742L89.824,112.35660041313703L89.93599999999999,113.26825740898451L90.328,114.14429159739494L90.496,115.76786155568885L90.636,112.65375700633126L90.66399999999999,113.2417934658551L90.72,110.55454138054989L90.80399999999999,116.64640726527298L90.916,119.00821552801564L90.94399999999999,115.78946862297317L91.14,113.75202854679263L91.22399999999999,114.15959909681223L91.36399999999999,116.5245514817461L91.896,118.93819062158015L92.176,116.71255003359643L92.344,114.2050322946711L92.512,116.35632753710769L92.624,118.82390272820487L92.96000000000001,121.81732563498315L92.988,122.51768403245626L93.688,120.25709881182681L93.94000000000001,123.11145820496183L94.416,119.8618774907452L94.92,121.6675544259943L94.94800000000001,120.95215856897815L95.00399999999999,118.90556719820489L95.28399999999999,122.26885251355641L95.396,123.34761558265969L95.928,113.47580026561907L96.236,114.26405981764131L96.46,116.35277662029824L96.628,115.99248721212722L96.656,117.56634327179538L96.71199999999999,116.72731544021573L96.768,112.56606301929835L96.908,113.96685884157588L97.608,116.84723198866706L97.636,118.09571567449487L97.916,116.76289387508344L97.972,116.63556368925637L98.112,119.89205957519094L98.504,117.62157491485524L98.672,121.61732042813449L98.924,119.80294007053465L99.344,119.92217703455978L99.456,120.56781446215089L99.512,122.72528499529705L99.876,119.65547975996701L100.212,120.79696033656339L100.54799999999999,121.53663861310326L100.82799999999999,115.07022295925525L100.99600000000001,115.70662241896096L101.472,115.44959358406129L101.64,116.35170782823599L101.66799999999999,114.96589413415931L101.892,117.6268225081655L102.06,110.35077054309204L102.228,114.14942418937298L102.368,114.8839569413925L103.012,108.97716816212325L103.208,114.01673386064522L103.348,111.85045128802868L103.712,115.90137476170307L103.908,112.51262738969473L104.328,111.86450120607941L104.664,111.99654237508733L104.74799999999999,110.67061141777015L105.14,112.46598121910081L105.16799999999999,115.96218995683661L105.224,120.72205473442835L106.12,119.82840513861157L106.148,122.73109269545064L106.17599999999999,122.69429127815715L106.372,120.03342131044478L106.68,115.28059064904458L107.10000000000001,116.51144146656756L107.24000000000001,118.76023560604908L108.08,121.61962571645651L108.44399999999999,113.84868897738978L108.696,113.3492708667691L108.94800000000001,111.4744838157043L109.116,116.84533247821005L109.228,116.56604048295301L109.704,124.3936301272123L109.76,124.24626672273928L109.788,118.09882106784615L110.124,125.14560490789195L110.628,122.45663762058126L111.104,122.91491889932935L111.328,124.99826934325209L111.972,125.92228020064539L112.224,122.81983670492474L112.28,124.77042276799384L112.336,124.15593924605668L112.44800000000001,125.64006502916706L112.476,121.81031188661035L112.78399999999999,126.81138060268269L112.86800000000001,123.39559806452098L113.092,123.2797728065604L113.176,123.56102625035966L113.428,127.65935444536046L113.848,123.375190727128L113.96,121.96263476146066L114.016,123.38430469592097L114.436,125.7903462073784L114.8,129.80060404071693L115.444,132.86433282810142L115.864,133.98494321595246L115.892,132.71037893587717L116.08800000000001,133.1026198690794L116.22800000000001,130.74122921977414L116.36800000000001,126.55074469062073L116.47999999999999,127.6785454262041L116.536,122.93838480763097L116.984,124.92988288195406L117.488,127.5776354062049L117.516,129.75758258029748L117.712,132.57273971155246L117.796,129.5059246964154L118.46799999999999,130.51680944245442L118.55199999999999,127.30478973317972L118.74799999999999,127.81856334882278L118.832,128.20190955208122L118.86,127.54781722430216L118.91600000000001,121.4763558471431L118.944,124.18494698788105L119.644,126.73890088430272L119.896,128.3946050669624L120.568,130.46005645190917L120.792,132.7991005557492L121.18400000000001,133.13709302411763L121.212,127.0026909331458L121.352,131.77201829969746L121.688,130.59059672129072L122.5,125.10846091849756L122.556,128.58047821249454L122.61200000000001,123.95733307675059L122.836,127.60238150284013L123.312,129.01245268896415L123.452,126.30763705203051L124.068,128.84868434446523L124.152,130.38553763256948L124.292,132.43137776152182L124.60000000000001,131.29904916462831L124.65599999999999,127.41924706445654L124.824,126.99003242460799L124.852,128.84579883818574L125.02,128.70938132288902L125.216,128.5841490631273L125.38399999999999,129.32395451098506L125.468,132.5983760078539L125.94399999999999,131.82541983245548L126.28,130.12522555541238L126.36399999999999,129.68606562704588L126.56,130.2380558329269L127.008,132.49555040761499L127.064,128.88648384430806L127.23200000000001,129.18470906388043L127.344,127.16146178347634L127.79199999999999,128.48908422769765L128.268,128.75065295923747L128.828,130.54289322512744L129.332,127.77292344818949L129.388,129.0528219571736L129.444,132.37893564289965L129.528,133.78523476592397L129.612,128.10935776037988L130.088,130.15451851846586L130.39600000000002,126.46746711946611L130.424,127.44464505921059L130.788,128.9582250071183L131.62800000000001,132.42790627793164L131.684,133.1851655740481L132.356,136.9075871258343L132.46800000000002,136.03108851607828L132.524,137.9532035946619L132.692,139.77620175539084L132.776,136.0272616211094L132.832,131.18797260901437L133.084,131.00792198408308L133.28,124.38426455276408L133.644,128.26964271317243L133.868,131.90620969087075L134.232,135.75010015279167L134.288,134.86335556930374L134.37199999999999,134.52680832878391L134.708,136.20604005000376L134.82,136.96463626051775L134.96,139.02154491200943L135.016,140.28420220825015L135.296,141.38692193337047L135.408,141.149282101439L136.22,140.07030796626006L136.35999999999999,139.3433681971955L136.556,139.89855869693326L137.284,136.56293811847428L137.50799999999998,137.88284766644037L137.78799999999998,139.2957631526577L138.012,135.3241473006122L138.208,137.923325676734L138.32,138.11686925829338L138.628,138.4452546253257L138.796,138.64665479150136L138.964,139.45258546284867L139.58,133.4790743494751L139.888,134.15817544488442L140.028,132.30027321355539L140.28,133.18323593364357L140.308,133.6377708973062L140.644,134.67690732250048L140.952,136.0485611329641L141.036,138.03108168960605L141.316,135.74286245298978L142.63199999999998,132.629624891237L142.772,130.4198427128527L142.8,132.7772399710258L143.08,131.54537537256718L145.124,133.64132129287626L145.432,131.8972972818369L145.45999999999998,135.2131969206425L145.51600000000002,135.23743283587055L145.572,135.46918719611978L145.656,133.92299544574269L145.684,135.71968614614872L146.38400000000001,133.4654850933365L146.524,134.4828795596011L146.60799999999998,135.40506767952724L146.832,134.58310760691336L147.14,132.594717309681L147.392,134.43080578196492L147.476,132.93647780387667L147.50400000000002,133.09701782088916L147.924,133.94833449495695L148.372,131.6412529288105L148.54,133.41742397477458L148.65200000000002,132.39196298200028L148.90400000000002,132.8743468980678L148.96,136.69446292583277L149.21200000000002,136.6147435490139L149.324,137.42390750550317L149.49200000000002,136.0708530765956L149.632,136.09369458390387L150.36,135.3241148092336L150.61200000000002,137.48619566845815L151.032,137.83097224228334L151.228,139.5167031842038L151.396,137.08023500189574L151.508,137.37612755146856L151.536,138.64490551380655L152.068,140.4823489792844L152.152,137.29142834590078L152.32000000000002,136.9189146598947L153.16000000000003,137.8647219503386L153.328,139.1135715314426L153.44,141.01920311860312L153.524,140.76922366149466L153.74800000000002,141.92637851314092L153.804,141.77410978362767L154.28,140.69879536799078L154.30800000000002,140.45222648961237L154.84,141.11400204290683L154.86800000000002,142.12842129105172L154.952,143.38543339034223L155.204,142.73201028084935L155.428,141.45657974228968L155.484,143.07555645850724L155.512,141.7863256195034L156.212,142.5790414636639L156.29600000000002,142.89700975568934L156.604,141.24145184786227L156.688,141.15167218346062L156.744,139.40699361502328L156.8,141.2690637572956L157.136,140.00877155747128L157.612,142.10365291765993L158.2,142.57696222562592L158.396,143.41848414420485L158.62,143.96907121705652L158.732,143.34372839789177L158.928,144.80853034681428L158.956,145.49126555696935L158.98399999999998,145.47855524823552L159.26399999999998,144.2089550859063L159.99200000000002,144.70457836486872L160.13199999999998,141.18062300680862L160.58,141.03951758562795L160.72,141.9756110693173L160.888,143.1714986524079L161,142.64885188705287L161.028,141.58571239749529L161.25199999999998,142.53862571084463L161.336,143.45469117977598L161.364,143.53419182192312L161.42000000000002,144.71676725143806L161.504,144.27403782602914L161.756,145.05046810088615L161.868,145.1765967779044L162.064,145.98087069378397L162.09199999999998,146.49648272684874L162.26,145.6204762082795L162.428,145.7352777881324L162.484,145.86517534034846L162.568,146.42631606088517L163.54799999999997,146.49595655993485L163.88400000000001,146.61840207425274L164.41600000000003,146.92130528120708L164.472,146.4679989798576L164.92,147.152773422522L165.00400000000002,146.88284683675923L165.06,146.37148212463472L165.088,146.4210607026268L165.62,146.9834896423965L166.292,146.6341238766044L166.37599999999998,146.59388412828025L166.74,146.72497632977235L166.96400000000003,147.0077261500172L167.21599999999998,147.3147438494928L167.3,146.6469904499392L167.356,146.94007143182398L167.384,147.38712193699385L167.77599999999998,147.23771266419712L168,147.57397622483387L168.61599999999999,146.9474347270573L168.784,145.58631121140985L168.868,146.3925557972328L169.064,146.67476203389978L169.428,146.96175108163368L169.48399999999998,146.92064820861106L169.512,146.17416041574052L169.708,147.06124801922542L170.212,147.4834482043308L170.856,147.33763925995362L170.996,146.15758857289512L171.024,144.16889581775402L171.556,144.54531826791606L171.612,143.94619875083828L171.78,144.04298539716282L172.50799999999998,143.04340634201932L172.64800000000002,143.35602385374884L173.012,141.8688950244962L173.124,142.27889949407452L173.628,141.11017259553833L173.852,140.79998345730164L174.49599999999998,137.8917856011239L174.58,139.10260042509123L174.608,130.71979579902103L174.72,130.90312452659853L174.748,128.68544624177125L174.86,125.54459569410984L175.476,127.37443001601997L176.12,130.67418445070922L176.48399999999998,130.7810417647382L176.93200000000002,132.03330292315604L177.24,131.98854034549788L177.68800000000002,132.8525420153546L178.08,130.32736743238019L178.108,127.73780447093515L178.19199999999998,129.97095869092863L178.668,132.2215154237075L178.78,131.5878525356366L179.33999999999997,130.83642738937817L179.39600000000002,131.7849419884651L179.788,132.29182156162076L179.928,131.62278471730122L180.32,128.25017686690074L180.348,126.39817608001935L180.404,125.36075900556509L180.544,126.23056379295507L181.32799999999997,126.9079283615179L181.57999999999998,131.0748491430418L181.776,132.91407558287003L181.88799999999998,134.33649443367014L182.056,136.50165175067718L182.22400000000002,137.42060403327545L182.364,137.07835306406258L182.44799999999998,136.63633151161815L182.50400000000002,135.84378831570234L182.924,137.53014901569418L183.176,139.27140156502088L183.4,140.0972118978176L183.87599999999998,141.3642105611845L184.016,140.67680538610722L184.072,139.62832104215684L184.408,139.9090309652666L184.46400000000003,140.24646581488727L184.632,137.77130056189228L184.968,139.76639308790402L185.108,141.304206048012L185.388,136.83427363309875L185.668,134.77104809685716L186.45200000000003,127.68301330092054L186.508,124.41168497253955L186.62,129.64258045106828L187.04000000000002,131.46032336443483L188.18800000000002,133.90951677018296L188.272,137.1559452495211L188.384,138.58063344545565L188.776,139.4114867859328L189.084,135.5069779761579L189.28,136.55548744845072L189.756,137.37482977478314L189.84,137.311991572789L189.98,138.53593718732097L190.12,140.4300988121313L190.28799999999998,141.0687028410126L190.624,140.34187656891876L190.652,141.0505207911285L191.128,141.14571030647468L191.212,140.12280513769932L191.408,140.05282448188393L192.16400000000002,142.8075195488687L192.22,142.26599919124578L192.416,143.69021798565467L192.92,143.90625052389194L192.976,143.97340929649286L193.172,142.29093899513492L193.42399999999998,143.8918089281631L193.70399999999998,142.5955478645034L193.732,143.9553448436658L194.012,144.62069753575327L194.124,144.93956529359818L194.15200000000002,145.6845016003299L194.684,145.28572134498643L194.82399999999998,144.9294669319623L194.88,144.72133388456305L194.99200000000002,145.26147939465403L195.244,145.1322597426293L195.74800000000002,145.8085964344214L196.308,146.4857933355731L196.448,147.1842921038486L196.70000000000002,147.45895616024836L196.868,147.2521339390284L196.89600000000002,147.9279723410968L196.924,146.97960516185543L197.008,147.69876859558215L197.09199999999998,147.36802509857768L197.708,147.16379224618407L198.184,145.88457031166632L198.212,146.50274951378154L198.324,147.48423770290404L198.464,147.53636828942172L198.66,148.0000085272376L198.912,147.43555457967426L198.968,147.66407956378404L199.248,147.84938934264628L199.41600000000003,147.10712193142203L199.472,148.0290426012327L199.64,148.1638508258134L199.696,146.78823129641233L199.752,147.0209030810429L200.088,147.60010936876733L200.144,146.2280479313171L200.2,146.68296088971113L200.84400000000002,147.4635778900827L201.09599999999998,146.85562041621478L201.18,146.5349760932986L201.628,147.9504200239935L201.908,148.10602715879432L201.93599999999998,148.03331047308296L201.99200000000002,148.28397958732754L202.16,148.46741596166558L202.328,147.57625092151324L202.524,148.39895399113036L202.664,148.4626711857291L202.86,148.7709255189879L203.028,149.0436745313515L203.39200000000002,149.16347410546004L204.12,148.4609244094268L204.68,147.99166449612233L204.76399999999998,147.56712557349118L204.876,148.50460709764667L204.904,148.02862175782982L205.10000000000002,148.17222199428357L205.576,148.48489766769575L205.884,148.15058379145245L206.192,147.26277752978672L206.388,148.3845239535753L206.556,148.24717092697526L207.228,148.68439456483546L208.544,149.01299596226704L208.768,148.6817469471484L208.88,147.7080371692055L209.244,148.27074567015612L209.552,148.39334477952505L209.66400000000002,149.30380929989448L209.888,148.78920107026596L209.916,148.17345157378733L210.028,148.7152559391488L210.28,147.9906780396002L210.308,148.04852487141474L210.588,148.01989446726193L210.61599999999999,147.79365326849668L210.644,148.63858619116576L210.868,148.411601618128L211.428,148.0248152897936L212.1,148.48157950855386L212.21200000000002,149.0248328066891L212.268,148.01344401341828L212.296,148.44456605882735L212.38,148.51415733409698L212.66,148.69315212913023L212.91199999999998,148.64759495674173L212.996,148.9785194371259L213.276,148.41851464504694L213.416,149.094541305868L214.424,148.138663461547L214.67600000000002,148.07921049937065L214.732,148.32132378485474L214.844,148.61093412647648L215.012,148.77846348768475L215.096,148.47032584837677L215.292,148.54298994297744L215.51600000000002,148.2698351240454L215.6,149.52781457282887L215.824,150.08805584804884L215.936,150.24888133643074L216.04799999999997,150.0933728852153L216.32799999999997,150.0953282557893L216.35600000000002,150.49306820440103L216.692,149.5862198657263L216.804,149.06156641462258L217,149.0000574273992L217.112,149.37216428566745L217.42,149.0632579782532L217.75599999999997,148.16756984197653L218.204,148.15578230830167L218.90400000000002,148.73762800462328L219.324,148.18919735650587L219.71599999999998,149.46719213575344L219.828,149.25368530601395L219.94,149.07238093346436L220.164,149.55033127117204L220.33200000000002,149.3075577908638L220.36,149.7101737331678L220.83599999999998,149.6524631989795L221.088,150.0497051261543L221.256,149.74635704950563L221.48000000000002,149.8900933614139L221.564,149.8083591640451L222.18,148.62637251946083L222.656,146.70436462958307L222.768,144.0273229700306L222.992,141.6986849112498L223.076,141.53444501478597L223.244,135.62421463560537L223.74800000000002,109.14501752037688L223.804,98.21580908047488L224.30800000000002,86.15266526548463L224.42,91.65119364743471L224.504,96.9860945039096L224.924,98.52035801965609L225.00799999999998,103.25904423808225L225.12,106.57525995263558L225.316,105.4979256921357L225.68,110.31522036393558L225.84799999999998,113.97572389721915L226.24,114.74715403604534L226.57600000000002,107.31364585094468L226.772,113.4123972185422L226.99599999999998,118.82840762305074L227.22,114.67759936909563L227.248,112.41240954316072L227.388,115.22557280013807L227.5,101.91261423557906L227.864,105.88413734990304L227.976,112.1807026252624L228.368,106.33915843877057L228.70399999999998,111.61628685780084L228.732,114.03419898383447L228.928,114.19718522687333L229.15200000000002,121.10344075476871L229.32,122.53348251173345L229.488,122.35006391995816L229.684,127.91205304857294L229.74,130.55537425277353L229.99200000000002,131.2389305996759L230.048,133.34461911129137L230.076,128.1213840461205L230.608,131.1820482383031L230.69199999999998,133.25587291537872L230.944,130.37002166521043L231.308,133.5895546401232L231.616,134.91435445098216L231.70000000000002,126.61698163597666L231.98000000000002,129.65421516328382L232.428,132.59184282201127L232.73600000000002,132.32245326744078L233.23999999999998,134.17027129654025L233.51999999999998,135.94838351860008L233.54799999999997,137.03744970771288L233.688,134.23709135063064L233.716,133.94045064334614L233.912,136.8264356075796L234.024,135.50279926175313L234.052,136.76064831563494L234.07999999999998,139.8078214529077L234.696,137.8511051477742L234.72400000000002,137.16593992064904L234.836,138.26584937483375L234.892,139.04986852294388L235.144,140.70249217084756L235.25599999999997,140.04790729183978L235.34,140.4180941784324L236.06799999999998,141.01447952115188L236.09599999999998,141.7124543179491L236.34799999999998,142.36137161191814L236.43200000000002,143.35603561721155L236.544,142.22033807171528L236.628,142.46942732353892L236.908,143.5198058254712L236.93599999999998,143.0428057949062L236.96400000000003,142.76378321887947L236.99200000000002,141.57198092783628L237.132,141.96361192432127L237.3,140.97602884988237L237.412,142.60076054048687L237.468,142.3049455768594L237.916,140.25317461113508L238.08399999999997,141.58694303524717L238.11200000000002,142.7192674517168L238.33599999999998,141.7014530712088L238.504,139.97694816671134L238.868,142.2703869431157L239.064,141.7424200647437L239.344,143.33582634767077L240.072,143.93037621700873L240.716,144.39780522599284L240.912,145.19462906846084L241.07999999999998,144.17886877673078L241.164,143.86588185797456L242.03199999999998,143.73026619714693L242.06,144.5479827991855L242.50799999999998,145.27874311040233L242.536,145.22727497059338L242.816,145.6270208068981L242.9,145.39459708978498L242.95600000000002,145.49776147991278L243.264,144.7867869507662L243.432,145.00005280502984L243.51600000000002,146.64973413514107L243.628,147.06729863176946L244.07600000000002,147.30208497697237L244.132,144.3506395754464L244.16,144.98201825840755L244.272,145.42743682040862L244.356,146.65554366513544L244.412,146.03053424957068L244.804,147.27048154445094L244.916,147.73206382704737L245.22400000000002,147.31982931323626L245.308,147.36277577923403L245.868,147.20256200520197L246.092,148.2329065044999L246.372,148.38527701439142L246.4,148.598347371171L246.708,147.82613873651627L247.35199999999998,146.35402487320306L247.49200000000002,147.0910250416553L247.96800000000002,148.03695204235055L248.612,148.28159713671766L248.668,148.37387824163534L249.20000000000002,148.2540517545086L249.228,147.67241533823858L249.33999999999997,148.3719476609114L249.452,147.02539900235433L249.95600000000002,148.0839923130995L250.124,148.4873772029594L250.152,148.0625055128047L251.32799999999997,147.90582276247198L251.552,148.470282163395L251.776,148.67233918975205L251.804,148.36791096997507L252.28,148.90263892783074L252.50400000000002,149.34487497850267L252.644,148.52933275576837L252.75599999999997,147.91789233163837L253.06400000000002,148.44873016760255L253.4,148.74587551912967L253.484,149.05283462948384L253.54,148.2565788817214L253.65200000000002,148.77058320592684L253.87599999999998,147.23636237293982L254.968,148.18347838527265L255.55599999999998,148.67791191939295L255.724,147.23720072927344L255.752,148.12937426848572L255.808,148.8246531607709L256.228,148.67330807876596L256.424,148.77400423396833L257.068,148.56258034145358L257.124,148.09525488725617L257.18,147.94380010760614L257.488,148.34539381621354L257.572,148.5672157583122L258.048,149.2768246428659L258.216,149.58497942963186L258.58,150.24448654192057L259.14,150.7235371761761L259.392,150.14261177588952L259.784,149.3429901162353L259.84000000000003,149.2790949320535L259.896,149.30578324799183L260.148,148.86899726006055L260.40000000000003,148.67248358674445L260.62399999999997,148.50287062583922L261.18399999999997,149.0395744675908L261.24,148.72233736720761L261.324,149.72150492344548L261.38,149.9687975878969L261.548,149.49599898519844L261.884,149.858744675891L261.912,148.66432862578415L262.108,149.2216705730473L262.192,149.58239059602707L262.332,149.21359142485554L262.528,148.36811773969706L262.584,147.64310387071356L263.424,148.16799631593457L264.012,148.09911177085536L264.32,148.70543647126377L264.404,148.28228644022954L264.544,146.97063533359534L264.768,147.5305330255256L264.992,145.9485004543439L265.104,145.91868404741143L265.132,146.60519925025136L265.188,147.26249819855113L265.272,147.5311591527475L265.468,146.68129025707324L265.58,145.89450385457087L265.692,146.1146228390086L265.944,146.46676143271617L265.972,147.8419540614658L266.112,148.28297373150428L266.224,147.43957374390746L266.252,147.1054648393201L266.56,147.3769914304499" style="fill: none;" fill="none"></path></g></g></g></g><g opacity="0.2"><g><g><g><path stroke="rgb(255, 112, 67)" stroke-width="2px" d="M29.204,-36.40960335731509L29.288,4.670045971870422L29.511999999999997,45.206708908081055L29.596,4.948934614658356L30.016000000000002,-7.397173643112211L30.099999999999998,22.84731239080429L30.66,12.106182873249054L30.884,27.03166425228119L30.996000000000002,18.47763627767563L31.555999999999997,-54.9041020870209L31.92,21.040466129779816L32.367999999999995,0.10293543338775635L32.452,55.88714152574539L32.704,40.56884616613388L33.012,20.144928693771362L33.152,37.127762734889984L33.208,28.349326252937317L33.348,18.008979856967926L34.44,6.352786421775818L34.58,27.034887373447418L35,30.988833010196686L35.168,15.50807774066925L35.308,42.03212231397629L35.504,39.655294716358185L35.672000000000004,-8.82527709007266L36.204,50.230699479579926L36.651999999999994,28.57704132795334L36.708,39.771139323711395L36.931999999999995,25.548851191997528L37.268,31.328481137752533L37.52,24.9186110496521L37.744,23.477291762828827L38.192,51.5739169716835L38.304,55.12141555547714L39.815999999999995,16.589002013206482L39.844,37.79861003160477L40.32,33.89480531215668L40.404,43.6651286482811L40.488,59.1853854060173L40.908,49.156941175460815L40.992,36.378141939640045L41.019999999999996,15.009244978427887L41.3,22.545538544654846L41.775999999999996,45.12085288763046L41.832,45.10140985250473L42.42,39.033294916152954L42.896,47.84915715456009L43.036,34.31024372577667L43.792,61.839203238487244L44.072,55.02977043390274L44.24,33.22558522224426L44.296,20.647026300430298L44.436,23.71963083744049L44.464,46.24852806329727L44.884,38.078458309173584L45.388,58.63235414028168L45.444,38.592968583106995L45.78,53.25168192386627L45.976000000000006,54.23106223344803L46.004,36.87193661928177L46.06,46.094892621040344L46.144,38.43021661043167L46.2,51.23440444469452L46.535999999999994,43.070791363716125L46.815999999999995,54.41969305276871L47.152,66.97306156158447L47.292,41.30342572927475L48.02,38.60355585813522L48.132,22.060015499591827L48.244,50.94341605901718L48.272,56.895738542079926L48.468,59.883238077163696L48.72,49.46087419986725L48.832,63.82391571998596L48.944,29.036393463611603L49.084,58.19774389266968L49.196,62.6317572593689L49.448,23.153029084205627L49.559999999999995,55.17015874385834L49.616,36.827960312366486L49.672,48.92443835735321L49.868,50.47313243150711L50.008,56.6283655166626L50.06399999999999,53.05468559265137L50.20399999999999,54.86861437559128L50.26,24.640431702136993L50.372,52.739101350307465L50.483999999999995,47.04895734786987L50.652,8.147522509098053L50.68,39.479723274707794L51.324,33.297463953495026L51.436,43.00603687763214L52.36,56.67575269937515L52.556000000000004,49.71816062927246L52.724,60.80997407436371L53.116,50.65934330224991L53.227999999999994,57.89503127336502L53.424,26.860943138599396L53.480000000000004,63.56776624917984L53.647999999999996,40.90666890144348L53.704,34.69586044549942L54.096000000000004,26.55335932970047L54.124,22.16040164232254L54.404,28.531761169433594L54.488,42.594885528087616L54.74,68.96449148654938L54.852,44.15373921394348L54.964,42.69563674926758L55.215999999999994,48.33045572042465L55.244,36.75063669681549L55.412,48.48065942525864L55.440000000000005,54.834036231040955L55.580000000000005,29.255482256412506L56.084,47.524007856845856L56.168,16.114003658294678L56.42,26.32264018058777L57.26,43.28094094991684L57.624,41.25580906867981L57.792,71.43500342965126L57.876,56.49316132068634L57.932,51.33835792541504L58.044000000000004,42.588418424129486L58.212,72.39724069833755L58.352000000000004,41.82147204875946L58.632,39.755107164382935L58.8,63.89861077070236L58.94,64.27163749933243L59.22,42.378821671009064L59.36,77.61703848838806L60.396,59.26043510437012L60.507999999999996,67.44579643011093L60.536,73.72338816523552L60.564,81.22225597500801L61.068,60.007469058036804L61.403999999999996,80.1368360221386L61.432,101.71617984771729L61.6,56.08407527208328L61.796,73.24806123971939L62.524,85.42651504278183L62.86,72.81893238425255L63.168,76.79289996623993L63.251999999999995,91.74318581819534L63.336000000000006,75.60790225863457L63.895999999999994,71.2493297457695L64.06400000000001,62.432716488838196L64.26,98.99447306990623L64.428,91.79364487528801L64.87599999999999,86.12598448991776L64.96000000000001,68.57315868139267L65.268,71.80616304278374L65.352,84.94059562683105L65.43599999999999,67.91057258844376L65.464,110.51133692264557L66.808,94.38393905758858L66.892,107.93853521347046L66.976,86.1443792283535L67.004,93.76409322023392L67.62,86.70466512441635L67.956,107.46371939778328L68.012,97.064960449934L68.124,103.5288256406784L68.236,105.82133576273918L68.348,91.5467058122158L69.048,95.85860043764114L69.07600000000001,90.66129148006439L69.384,90.99164053797722L69.60799999999999,112.12500974535942L69.72,87.10218340158463L69.776,92.8699117898941L70.25200000000001,107.8968171775341L70.672,90.40382772684097L70.784,88.45816820859909L71.48400000000001,101.49367496371269L71.932,104.82934981584549L71.96000000000001,123.59256193041801L72.38,96.76600813865662L72.492,100.68840578198433L72.94,92.10360169410706L72.968,108.8272874057293L73.33200000000001,86.04723706841469L73.58399999999999,93.12285900115967L73.72399999999999,92.38239124417305L73.86399999999999,104.80982854962349L73.94800000000001,110.77521041035652L74.088,105.17169952392578L74.17200000000001,114.1951584070921L74.508,97.32107862830162L74.73200000000001,109.79782238602638L74.928,95.98703503608704L75.124,82.51376792788506L75.376,102.05172345042229L75.488,81.13893464207649L75.544,103.20700377225876L75.60000000000001,110.52838608622551L75.684,100.92650473117828L75.88000000000001,91.96194604039192L76.13199999999999,99.19307574629784L76.41199999999999,96.98513343930244L76.524,90.64050287008286L76.58000000000001,101.06554225087166L76.664,107.8464050590992L76.804,109.06182423233986L76.888,81.51497587561607L76.916,98.63918915390968L76.944,96.82961523532867L77.476,110.44602960348129L77.72800000000001,112.83688142895699L77.896,108.59632313251495L78.092,108.7839786708355L78.12,126.0762532055378L78.372,96.07088312506676L78.568,111.07600897550583L79.156,103.90149250626564L79.268,97.87458449602127L79.548,113.90858747065067L79.66,105.89112311601639L79.91199999999999,113.5722067952156L80.276,83.30842897295952L80.36,92.85972610116005L80.528,101.6830150783062L80.584,90.04927918314934L81.536,119.55893531441689L81.70400000000001,111.42452329397202L82.17999999999999,118.40217381715775L82.236,111.04375168681145L82.46,102.04843252897263L82.544,113.14947202801704L82.6,117.51057662069798L83.104,97.98086404800415L83.49600000000001,100.10280951857567L83.55199999999999,94.47756603360176L84.05600000000001,94.23931583762169L84.16799999999999,118.35619479417801L84.392,99.08080890774727L84.868,96.94587707519531L85.036,97.8314583003521L85.708,124.80019189417362L86.04400000000001,73.68485152721405L86.072,114.7466067969799L86.15599999999999,117.44625501334667L86.18400000000001,109.30858597159386L86.24,108.51780518889427L86.29599999999999,119.49529692530632L86.408,124.74049374461174L86.52,109.18046429753304L86.716,103.1651970744133L87.136,124.02472354471684L88.088,117.57022522389889L88.2,118.77125509083271L88.256,112.72931888699532L88.396,118.16657043993473L88.648,132.6714814454317L88.98400000000001,110.29020890593529L89.264,116.62425741553307L89.32000000000001,102.32028037309647L89.37599999999999,102.13289082050323L89.404,106.30172163248062L89.51599999999999,110.67614376544952L89.60000000000001,104.74730625748634L89.824,120.35216212272644L89.93599999999999,114.63574290275574L90.328,115.4583428800106L90.496,118.20321649312973L90.636,107.98260018229485L90.66399999999999,114.12384815514088L90.72,106.52366325259209L90.80399999999999,125.78420609235764L90.916,122.55092792212963L90.94399999999999,110.96134826540947L91.14,110.69586843252182L91.22399999999999,114.77095492184162L91.36399999999999,120.07198005914688L91.896,122.55864933133125L92.176,113.37408915162086L92.344,110.44375568628311L92.512,119.58327040076256L92.624,122.52526551485062L92.96000000000001,126.30745999515057L92.988,123.56822162866592L93.688,116.86622098088264L93.94000000000001,127.39299729466438L94.416,114.98750641942024L94.92,124.37606982886791L94.94800000000001,119.87906478345394L95.00399999999999,115.83568014204502L95.28399999999999,127.31378048658371L95.396,124.96576018631458L95.928,98.66807729005814L96.236,115.4464491456747L96.46,119.4858518242836L96.628,115.45205309987068L96.656,119.92712736129761L96.71199999999999,115.4687736928463L96.768,106.32418438792229L96.908,116.06805257499218L97.608,121.16779170930386L97.636,119.96844120323658L97.916,114.76366117596626L97.972,116.44456841051579L98.112,124.77680340409279L98.504,114.21584792435169L98.672,127.61093869805336L98.924,117.08136953413486L99.344,120.1010324805975L99.456,121.53627060353756L99.512,125.96149079501629L99.876,115.05077190697193L100.212,122.50918120145798L100.54799999999999,122.6461560279131L100.82799999999999,105.3705994784832L100.99600000000001,116.66122160851955L101.472,115.06405033171177L101.64,117.70487919449806L101.66799999999999,112.88717359304428L101.892,121.61821506917477L102.06,99.43669259548187L102.228,119.8474046587944L102.368,115.98575606942177L103.012,100.11698499321938L103.208,121.57608240842819L103.348,108.60102742910385L103.712,121.9777599722147L103.908,107.4295063316822L104.328,110.89231193065643L104.664,112.19460412859917L104.74799999999999,108.68171498179436L105.14,115.1590359210968L105.16799999999999,121.20650306344032L105.224,127.86185190081596L106.12,118.4879307448864L106.148,127.08512403070927L106.17599999999999,122.63908915221691L106.372,116.04211635887623L106.68,108.15134465694427L107.10000000000001,118.35771769285202L107.24000000000001,122.13342681527138L108.08,125.90871088206768L108.44399999999999,102.19228386878967L108.696,112.60014370083809L108.94800000000001,108.66230323910713L109.116,124.90160547196865L109.228,116.14710249006748L109.704,136.13501459360123L109.76,124.02522161602974L109.788,108.87765258550644L110.124,135.71578066796064L110.628,118.42318668961525L111.104,123.60234081745148L111.328,128.1232950091362L111.972,127.30829648673534L112.224,118.16617146134377L112.28,127.69630186259747L112.336,123.23421396315098L112.44800000000001,127.86625370383263L112.476,116.06568217277527L112.78399999999999,134.3129836767912L112.86800000000001,118.27192425727844L113.092,123.10603491961956L113.176,123.98290641605854L113.428,133.80684673786163L113.848,116.94894514977932L113.96,119.84380081295967L114.016,125.51680959761143L114.436,129.39940847456455L114.8,135.81599079072475L115.444,137.45992600917816L115.864,135.66585879772902L115.892,130.79853251576424L116.08800000000001,133.69098126888275L116.22800000000001,127.19914324581623L116.36800000000001,120.26501789689064L116.47999999999999,129.37024652957916L116.536,115.82814387977123L116.984,127.91712999343872L117.488,131.54926419258118L117.516,133.0275033414364L117.712,136.79547540843487L117.796,124.90570217370987L118.46799999999999,132.03313656151295L118.55199999999999,122.48676016926765L118.74799999999999,128.58922377228737L118.832,128.77692885696888L118.86,126.56667873263359L118.91600000000001,112.3691637814045L118.944,128.24783369898796L119.644,130.56983172893524L119.896,130.87816134095192L120.568,133.5582335293293L120.792,136.30766671150923L121.18400000000001,133.64408172667027L121.212,117.80108779668808L121.352,138.92600934952497L121.688,128.8184643536806L122.5,116.88525721430779L122.556,133.78850415349007L122.61200000000001,117.02261537313461L122.836,133.06995414197445L123.312,131.12755946815014L123.452,122.2504135966301L124.068,132.6602552831173L124.152,132.69081756472588L124.292,135.50013795495033L124.60000000000001,129.60055626928806L124.65599999999999,121.59954391419888L124.824,126.34621046483517L124.852,131.62944845855236L125.02,128.50475504994392L125.216,128.3963006734848L125.38399999999999,130.43366268277168L125.468,137.51000825315714L125.94399999999999,130.66598556935787L126.28,127.57493413984776L126.36399999999999,129.02732573449612L126.56,131.06604114174843L127.008,135.88179226964712L127.064,123.47288399934769L127.23200000000001,129.63204689323902L127.344,124.12659086287022L127.79199999999999,130.48051789402962L128.268,129.14300605654716L128.828,133.2312536239624L129.332,123.61796878278255L129.388,130.97266972064972L129.444,137.36810617148876L129.528,135.89468345046043L129.612,119.59554225206375L130.088,133.22225965559483L130.39600000000002,120.93689002096653L130.424,128.91041196882725L130.788,131.22859492897987L131.62800000000001,137.63242818415165L131.684,134.3210545182228L132.356,142.49121945351362L132.46800000000002,134.71634060144424L132.524,140.8363762125373L132.692,142.51069899648428L132.776,130.40385141968727L132.832,123.92903909087181L133.084,130.73784604668617L133.28,114.44877840578556L133.644,134.09770995378494L133.868,137.36106015741825L134.232,141.51593584567308L134.288,133.53323869407177L134.37199999999999,134.02198746800423L134.708,138.72488763183355L134.82,138.1025305762887L134.96,142.10690788924694L135.016,142.17818815261126L135.296,143.04100152105093L135.408,140.79282235354185L136.22,138.45184676349163L136.35999999999999,138.25295854359865L136.556,140.73134444653988L137.284,131.55950725078583L137.50799999999998,139.8627119883895L137.78799999999998,141.41513638198376L138.012,129.3667235225439L138.208,141.82209324091673L138.32,138.4071846306324L138.628,138.93783267587423L138.796,138.9487550407648L138.964,140.6614814698696L139.58,124.51880767941475L139.888,135.1768270879984L140.028,129.5134198665619L140.28,134.50768001377583L140.308,134.31957334280014L140.644,136.23561196029186L140.952,138.10604184865952L141.036,141.00486252456903L141.316,132.31053359806538L142.63199999999998,127.95976854860783L142.772,127.10516944527626L142.8,136.31333585828543L143.08,129.69757847487926L145.124,136.78524017333984L145.432,129.28126126527786L145.45999999999998,140.18704637885094L145.51600000000002,135.27378670871258L145.572,135.8168187364936L145.656,131.60370782017708L145.684,138.4147221967578L146.38400000000001,130.0841835141182L146.524,136.00897125899792L146.60799999999998,136.78834985941648L146.832,133.35016749799252L147.14,129.61213186383247L147.392,137.18493849039078L147.476,130.6949858367443L147.50400000000002,133.3378278464079L147.924,135.2253095060587L148.372,128.1806305795908L148.54,136.08168054372072L148.65200000000002,130.85377149283886L148.90400000000002,133.5979227721691L148.96,142.42463696748018L149.21200000000002,136.49516448378563L149.324,138.63765344023705L149.49200000000002,134.04127143323421L149.632,136.12795684486628L150.36,134.16974514722824L150.61200000000002,140.72931695729494L151.032,138.34813710302114L151.228,142.04529959708452L151.396,133.4255327284336L151.508,137.8199663758278L151.536,140.54807245731354L152.068,143.2385141775012L152.152,132.5050473958254L152.32000000000002,136.3601441308856L153.16000000000003,139.28343288600445L153.328,140.98684590309858L153.44,143.87765049934387L153.524,140.39425447583199L153.74800000000002,143.6621107906103L153.804,141.54570668935776L154.28,139.08582374453545L154.30800000000002,140.08237317204475L154.84,142.1066653728485L154.86800000000002,143.65005016326904L154.952,145.27095153927803L155.204,141.75187561661005L155.428,139.54343393445015L155.484,145.50402153283358L155.512,139.85247936099768L156.212,143.76811522990465L156.29600000000002,143.3739621937275L156.604,138.75811498612165L156.688,141.01700268685818L156.744,136.78997576236725L156.8,144.06216897070408L157.136,138.11833325773478L157.612,145.24597495794296L158.2,143.28692618757486L158.396,144.68076702207327L158.62,144.794951826334L158.732,142.40571416914463L158.928,147.0057332701981L158.956,146.51536837220192L158.98399999999998,145.4594897851348L159.26399999999998,142.30455484241247L159.99200000000002,145.44801328331232L160.13199999999998,135.89468996971846L160.58,140.82785945385695L160.72,143.3797512948513L160.888,144.96533002704382L161,141.86488173902035L161.028,139.9910031631589L161.25199999999998,143.96799568086863L161.336,144.828789383173L161.364,143.65344278514385L161.42000000000002,146.49063039571047L161.504,143.6099436879158L161.756,146.21511351317167L161.868,145.36578979343176L162.064,147.18728156760335L162.09199999999998,147.26990077644587L162.26,144.30646643042564L162.428,145.90748015791178L162.484,146.06002166867256L162.568,147.26802714169025L163.54799999999997,146.60041730850935L163.88400000000001,146.8020703457296L164.41600000000003,147.37566009163857L164.472,145.78803952783346L164.92,148.17993508651853L165.00400000000002,146.4779569581151L165.06,145.60443505644798L165.088,146.4954285696149L165.62,147.82713305205107L166.292,146.11007522791624L166.37599999999998,146.53352450579405L166.74,146.92161463201046L166.96400000000003,147.43185088038445L167.21599999999998,147.7752703987062L167.3,145.64536035060883L167.356,147.37969290465117L167.384,148.05769769474864L167.77599999999998,147.01359875500202L168,148.07837156578898L168.61599999999999,146.00762248039246L168.784,143.5446259379387L168.868,147.60192267596722L169.064,147.09807138890028L169.428,147.39223465323448L169.48399999999998,146.85899389907718L169.512,145.0544287264347L169.708,148.39187942445278L170.212,148.1167484819889L170.856,147.11892584338784L170.996,144.38751254230738L171.024,141.18585668504238L171.556,145.1099519431591L171.612,143.04751947522163L171.78,144.18816536664963L172.50799999999998,141.54403775930405L172.64800000000002,143.82495012134314L173.012,139.63820178061724L173.124,142.89390619844198L173.628,139.35708224773407L173.852,140.3346997499466L174.49599999999998,133.52948881685734L174.58,140.9188226610422L174.608,118.14558885991573L174.72,131.17811761796474L174.748,125.35892881453037L174.86,120.83331987261772L175.476,130.11918149888515L176.12,135.62381610274315L176.48399999999998,130.94132773578167L176.93200000000002,133.9116946607828L177.24,131.92139647901058L177.68800000000002,134.1485445201397L178.08,126.53960555791855L178.108,123.85346002876759L178.19199999999998,133.32069002091885L178.668,135.5973505228758L178.78,130.6373582035303L179.33999999999997,129.70928966999054L179.39600000000002,133.20771388709545L179.788,133.0521409213543L179.928,130.61922945082188L180.32,123.19126509130001L180.348,123.6201748996973L180.404,123.8046333938837L180.544,127.53527097404003L181.32799999999997,127.92397521436214L181.57999999999998,137.32523031532764L181.776,135.67291524261236L181.88799999999998,136.47012270987034L182.056,139.7493877261877L182.22400000000002,138.79903245717287L182.364,136.56497661024332L182.44799999999998,135.97329918295145L182.50400000000002,134.65497352182865L182.924,140.05969006568193L183.176,141.8832803890109L183.4,141.3359273970127L183.87599999999998,143.26470855623484L184.016,139.6456976234913L184.072,138.0555945262313L184.408,140.33009584993124L184.46400000000003,140.75261808931828L184.632,134.05855268239975L184.968,142.75903187692165L185.108,143.61092548817396L185.388,130.12937501072884L185.668,131.67620979249477L186.45200000000003,117.05096110701561L186.508,119.50469247996807L186.62,137.4889236688614L187.04000000000002,134.18693773448467L188.18800000000002,137.58330687880516L188.272,142.02558796852827L188.384,140.71766573935747L188.776,140.6577667966485L189.084,129.6502147614956L189.28,138.12825165688992L189.756,138.60384326428175L189.84,137.2177342697978L189.98,140.37185560911894L190.12,143.27134124934673L190.28799999999998,142.02660888433456L190.624,139.25163716077805L190.652,142.11348712444305L191.128,141.288494579494L191.212,138.58844738453627L191.408,139.94785349816084L192.16400000000002,146.93956214934587L192.22,141.45371865481138L192.416,145.82654617726803L192.92,144.2302993312478L192.976,144.07414745539427L193.172,139.76723354309797L193.42399999999998,146.29311382770538L193.70399999999998,140.65115626901388L193.732,145.9950403124094L194.012,145.6187265738845L194.124,145.41786693036556L194.15200000000002,146.80190606042743L194.684,144.68755096197128L194.82399999999998,144.3950853124261L194.88,144.40913431346416L194.99200000000002,146.07169765979052L195.244,144.93843026459217L195.74800000000002,146.82310147210956L196.308,147.50158868730068L196.448,148.23204025626183L196.70000000000002,147.870952244848L196.868,146.94190060719848L196.89600000000002,148.94172994419932L196.924,145.55705439299345L197.008,148.7775137461722L197.09199999999998,146.87190985307097L197.708,146.85744296759367L198.184,143.9657374098897L198.212,147.43001831695437L198.324,148.95646998658776L198.464,147.61456416919827L198.66,148.69546888396144L198.912,146.58887365832925L198.968,148.0068670399487L199.248,148.1273540109396L199.41600000000003,145.99372081458569L199.472,149.4119236059487L199.64,148.36606316268444L199.696,144.72480200231075L199.752,147.3699107579887L200.088,148.468918800354L200.144,144.16995577514172L200.2,147.36533032730222L200.84400000000002,148.63450339064002L201.09599999999998,145.94368420541286L201.18,146.0540096089244L201.628,150.07358592003584L201.908,148.33943786099553L201.93599999999998,147.92423544451594L201.99200000000002,148.6599832586944L202.16,148.74257052317262L202.328,146.23950336128473L202.524,149.63300859555602L202.664,148.55824697762728L202.86,149.23330701887608L203.028,149.45279804989696L203.39200000000002,149.34317346662283L204.12,147.40709986537695L204.68,147.28777462616563L204.76399999999998,146.93031718954444L204.876,149.9108293838799L204.904,147.31464374810457L205.10000000000002,148.38762234896421L205.576,148.953911177814L205.884,147.6491129770875L206.192,145.9310681372881L206.388,150.0671435892582L206.556,148.04114138707519L207.228,149.34023002162576L208.544,149.50589805841446L208.768,148.18487342447042L208.88,146.2474725022912L209.244,149.11480842158198L209.552,148.57724344357848L209.66400000000002,150.66950608044863L209.888,148.01728872582316L209.916,147.24982732906938L210.028,149.52796248719096L210.28,146.90381119027734L210.308,148.13529511913657L210.588,147.97694886103272L210.61599999999999,147.45429147034883L210.644,149.90598557516932L210.868,148.0711247585714L211.428,147.444635797292L212.1,149.16672583669424L212.21200000000002,149.83971275389194L212.268,146.49636082351208L212.296,149.09124912694097L212.38,148.6185442470014L212.66,148.96164432168007L212.91199999999998,148.57925919815898L212.996,149.4749061577022L213.276,147.5785074569285L213.416,150.1085812970996L214.424,146.7048466950655L214.67600000000002,147.9900310561061L214.732,148.68449371308088L214.844,149.0453496389091L215.012,149.02975752949715L215.096,148.0081193894148L215.292,148.65198608487844L215.51600000000002,147.8601028956473L215.6,151.4147837460041L215.824,150.9284177608788L215.936,150.49011956900358L216.04799999999997,149.86011020839214L216.32799999999997,150.09826131165028L216.35600000000002,151.08967812731862L216.692,148.22594735771418L216.804,148.27458623796701L217,148.9077939465642L217.112,149.9303245730698L217.42,148.5998985171318L217.75599999999997,146.82403763756156L218.204,148.13810100778937L218.90400000000002,149.61039654910564L219.324,147.3665513843298L219.71599999999998,151.3841843046248L219.828,148.9334250614047L219.94,148.80042437464L220.164,150.26725677773356L220.33200000000002,148.94339757040143L220.36,150.31409764662385L220.83599999999998,149.56589739769697L221.088,150.6455680169165L221.256,149.29133493453264L221.48000000000002,150.10569782927632L221.564,149.68575786799192L222.18,146.8533925525844L222.656,143.82135279476643L222.768,140.01176048070192L222.992,138.20572782307863L223.076,141.2880851700902L223.244,126.75886906683445L223.74800000000002,69.42622184753418L223.804,81.82199642062187L224.30800000000002,68.05794954299927L224.42,99.8989862203598L224.504,104.9884457886219L224.924,100.82175329327583L225.00799999999998,110.36707356572151L225.12,111.54958352446556L225.316,103.88192430138588L225.68,117.54116237163544L225.84799999999998,119.46647919714451L226.24,115.90429924428463L226.57600000000002,96.16338357329369L226.772,122.56052426993847L226.99599999999998,126.95242322981358L227.22,108.451386988163L227.248,109.01462480425835L227.388,119.4453176856041L227.5,81.94317638874054L227.864,111.84142202138901L227.976,121.62555053830147L228.368,97.57684215903282L228.70399999999998,119.53197948634624L228.732,117.66106717288494L228.928,114.44166459143162L229.15200000000002,131.4628240466118L229.32,124.67854514718056L229.488,122.07493603229523L229.684,136.25503674149513L229.74,134.5203560590744L229.99200000000002,132.26426512002945L230.048,136.50315187871456L230.076,120.28653144836426L230.608,135.773044526577L230.69199999999998,136.36660993099213L230.944,126.041244789958L231.308,138.41885410249233L231.616,136.90155416727066L231.70000000000002,114.17092241346836L231.98000000000002,134.2100654542446L232.428,136.99828431010246L232.73600000000002,131.91836893558502L233.23999999999998,136.94199834018946L233.51999999999998,138.61555185168982L233.54799999999997,138.67104899138212L233.688,130.0365538150072L233.716,133.4954895824194L233.912,141.1554130539298L234.024,133.51734474301338L234.052,138.64742189645767L234.07999999999998,144.37858115881681L234.696,134.91603069007397L234.72400000000002,136.1381920799613L234.836,139.91571355611086L234.892,140.22589724510908L235.144,143.18142764270306L235.25599999999997,139.0660299733281L235.34,140.97337450832129L236.06799999999998,141.9090575352311L236.09599999999998,142.75941651314497L236.34799999999998,143.3347475528717L236.43200000000002,144.84803162515163L236.544,140.5167917534709L236.628,142.8430612012744L236.908,145.09537357836962L236.93599999999998,142.32730574905872L236.96400000000003,142.34524935483932L236.99200000000002,139.7842774912715L237.132,142.5510584190488L237.3,139.49465423822403L237.412,145.0378580763936L237.468,141.86122313141823L237.916,137.17551816254854L238.08399999999997,143.58759567141533L238.11200000000002,144.41775407642126L238.33599999999998,140.1747315004468L238.504,137.39019080996513L238.868,145.71054510772228L239.064,140.9504697471857L239.344,145.72593577206135L240.072,144.82220102101564L240.716,145.09894873946905L240.912,146.38986483216286L241.07999999999998,142.65522833913565L241.164,143.39640147984028L242.03199999999998,143.52684270590544L242.06,145.77455770224333L242.50799999999998,146.3748835772276L242.536,145.15007276088L242.816,146.2266395613551L242.9,145.04596151411533L242.95600000000002,145.65250806510448L243.264,143.72032515704632L243.432,145.3199515864253L243.51600000000002,149.1242561303079L243.628,147.69364537671208L244.07600000000002,147.65426449477673L244.132,139.9234714731574L244.16,145.9290862828493L244.272,146.0955646634102L244.356,148.4977039322257L244.412,145.09302012622356L244.804,149.13040248677135L244.916,148.424437250942L245.22400000000002,146.70147754251957L245.308,147.42719547823071L245.868,146.96224134415388L246.092,149.77842325344682L246.372,148.6138327792287L246.4,148.91795290634036L246.708,146.66782578453422L247.35199999999998,144.14585407823324L247.49200000000002,148.1965252943337L247.96800000000002,149.45584254339337L248.612,148.64856477826834L248.668,148.51229989901185L249.20000000000002,148.0743120238185L249.228,146.79996071383357L249.33999999999997,149.4212461449206L249.452,145.00557601451874L249.95600000000002,149.67188227921724L250.124,149.0924545377493L250.152,147.42519797757268L251.32799999999997,147.6707986369729L251.552,149.31697126477957L251.776,148.97542472928762L251.804,147.91126864030957L252.28,149.70473086461425L252.50400000000002,150.0082290545106L252.644,147.30601942166686L252.75599999999997,147.0007316954434L253.06400000000002,149.24498692154884L253.4,149.19159354642034L253.484,149.5132732950151L253.54,147.06219526007771L253.65200000000002,149.541589692235L253.87599999999998,144.93503112345934L254.968,149.60415240377188L255.55599999999998,149.41956222057343L255.724,145.07613394409418L255.752,149.46763457730412L255.808,149.86757149919868L256.228,148.44629045575857L256.424,148.92504846677184L257.068,148.2454445026815L257.124,147.39426670596004L257.18,147.7166179381311L257.488,148.94778437912464L257.572,148.89994867146015L258.048,150.34123796969652L258.216,150.0472116097808L258.58,151.2337472103536L259.14,151.44211312755942L259.392,149.27122367545962L259.784,148.14355762675405L259.84000000000003,149.1832521557808L259.896,149.34581572189927L260.148,148.21381827816367L260.40000000000003,148.3777130767703L260.62399999999997,148.24845118448138L261.18399999999997,149.84463023021817L261.24,148.24648171663284L261.324,151.22025625780225L261.38,150.33973658457398L261.548,148.78680108115077L261.884,150.4028632119298L261.912,146.8727045506239L262.108,150.05768349394202L262.192,150.12347063049674L262.332,148.6603926680982L262.528,147.09990721195936L262.584,146.55558306723833L263.424,148.95533498376608L264.012,147.99578495323658L264.32,149.61492352187634L264.404,147.6475613936782L264.544,145.00315867364407L264.768,148.370379563421L264.992,143.57545159757137L265.104,145.87395943701267L265.132,147.6349720545113L265.188,148.24844662100077L265.272,147.93415058404207L265.468,145.40648691356182L265.58,144.7143242508173L265.692,146.44480131566525L265.944,146.99496932327747L265.972,149.90474300459027L266.112,148.944503236562L266.224,146.1744737625122L266.252,146.60430148243904L266.56,147.78428131714463" style="fill: none;" fill="none"></path></g></g></g></g></g></g><g transform="translate(50, 175)" clip-path="url(#clip_1)"><clipPath id="clip_1"><rect width="280" height="25"></rect></clipPath><g><g><line x1="0" y1="0" x2="0" y2="5" style="visibility: inherit;" fill="rgb(0, 0, 0)" stroke="rgb(204, 204, 204)" stroke-width="1px"></line><line x1="28" y1="0" x2="28" y2="5" style="visibility: inherit;" fill="rgb(0, 0, 0)" stroke="rgb(204, 204, 204)" stroke-width="1px"></line><line x1="56" y1="0" x2="56" y2="5" style="visibility: inherit;" fill="rgb(0, 0, 0)" stroke="rgb(204, 204, 204)" stroke-width="1px"></line><line x1="84" y1="0" x2="84" y2="5" style="visibility: inherit;" fill="rgb(0, 0, 0)" stroke="rgb(204, 204, 204)" stroke-width="1px"></line><line x1="112" y1="0" x2="112" y2="5" style="visibility: inherit;" fill="rgb(0, 0, 0)" stroke="rgb(204, 204, 204)" stroke-width="1px"></line><line x1="140" y1="0" x2="140" y2="5" style="visibility: inherit;" fill="rgb(0, 0, 0)" stroke="rgb(204, 204, 204)" stroke-width="1px"></line><line x1="168" y1="0" x2="168" y2="5" style="visibility: inherit;" fill="rgb(0, 0, 0)" stroke="rgb(204, 204, 204)" stroke-width="1px"></line><line x1="196" y1="0" x2="196" y2="5" style="visibility: inherit;" fill="rgb(0, 0, 0)" stroke="rgb(204, 204, 204)" stroke-width="1px"></line><line x1="224" y1="0" x2="224" y2="5" style="visibility: inherit;" fill="rgb(0, 0, 0)" stroke="rgb(204, 204, 204)" stroke-width="1px"></line><line x1="252" y1="0" x2="252" y2="5" style="visibility: inherit;" fill="rgb(0, 0, 0)" stroke="rgb(204, 204, 204)" stroke-width="1px"></line><line x1="280" y1="0" x2="280" y2="5" style="visibility: inherit;" fill="rgb(0, 0, 0)" stroke="rgb(204, 204, 204)" stroke-width="1px"></line></g><g transform="translate(0, 8)"><text x="0" y="0" dx="0em" dy="0.95em" style="text-anchor: middle; visibility: hidden; font-family: &quot;Helvetica Neue&quot;, sans-serif; font-size: 12px; font-weight: 200;" fill="rgb(50, 49, 63)" stroke="none" stroke-width="1px">-1k</text><text x="28" y="0" dx="0em" dy="0.95em" style="text-anchor: middle; visibility: inherit; font-family: &quot;Helvetica Neue&quot;, sans-serif; font-size: 12px; font-weight: 200;" fill="rgb(50, 49, 63)" stroke="none" stroke-width="1px">0</text><text x="56" y="0" dx="0em" dy="0.95em" style="text-anchor: middle; visibility: inherit; font-family: &quot;Helvetica Neue&quot;, sans-serif; font-size: 12px; font-weight: 200;" fill="rgb(50, 49, 63)" stroke="none" stroke-width="1px">1k</text><text x="84" y="0" dx="0em" dy="0.95em" style="text-anchor: middle; visibility: inherit; font-family: &quot;Helvetica Neue&quot;, sans-serif; font-size: 12px; font-weight: 200;" fill="rgb(50, 49, 63)" stroke="none" stroke-width="1px">2k</text><text x="112" y="0" dx="0em" dy="0.95em" style="text-anchor: middle; visibility: inherit; font-family: &quot;Helvetica Neue&quot;, sans-serif; font-size: 12px; font-weight: 200;" fill="rgb(50, 49, 63)" stroke="none" stroke-width="1px">3k</text><text x="140" y="0" dx="0em" dy="0.95em" style="text-anchor: middle; visibility: inherit; font-family: &quot;Helvetica Neue&quot;, sans-serif; font-size: 12px; font-weight: 200;" fill="rgb(50, 49, 63)" stroke="none" stroke-width="1px">4k</text><text x="168" y="0" dx="0em" dy="0.95em" style="text-anchor: middle; visibility: inherit; font-family: &quot;Helvetica Neue&quot;, sans-serif; font-size: 12px; font-weight: 200;" fill="rgb(50, 49, 63)" stroke="none" stroke-width="1px">5k</text><text x="196" y="0" dx="0em" dy="0.95em" style="text-anchor: middle; visibility: inherit; font-family: &quot;Helvetica Neue&quot;, sans-serif; font-size: 12px; font-weight: 200;" fill="rgb(50, 49, 63)" stroke="none" stroke-width="1px">6k</text><text x="224" y="0" dx="0em" dy="0.95em" style="text-anchor: middle; visibility: inherit; font-family: &quot;Helvetica Neue&quot;, sans-serif; font-size: 12px; font-weight: 200;" fill="rgb(50, 49, 63)" stroke="none" stroke-width="1px">7k</text><text x="252" y="0" dx="0em" dy="0.95em" style="text-anchor: middle; visibility: inherit; font-family: &quot;Helvetica Neue&quot;, sans-serif; font-size: 12px; font-weight: 200;" fill="rgb(50, 49, 63)" stroke="none" stroke-width="1px">8k</text><text x="280" y="0" dx="0em" dy="0.95em" style="text-anchor: middle; visibility: hidden; font-family: &quot;Helvetica Neue&quot;, sans-serif; font-size: 12px; font-weight: 200;" fill="rgb(50, 49, 63)" stroke="none" stroke-width="1px">9k</text></g><line x1="0" y1="0" x2="280" y2="0" fill="rgb(0, 0, 0)" stroke="rgb(204, 204, 204)" stroke-width="1px"></line></g></g></g></g></svg>